<?xml version="1.0" standalone="no"?>
<!DOCTYPE svg PUBLIC "-//W3C//DTD SVG 20010904//EN"
 "http://www.w3.org/TR/2001/REC-SVG-20010904/DTD/svg10.dtd">
<svg version="1.0" xmlns="http://www.w3.org/2000/svg"
 width="1000.000000pt" height="1000.000000pt" viewBox="0 0 1000.000000 1000.000000"
 preserveAspectRatio="xMidYMid meet">

<g transform="translate(0.000000,1000.000000) scale(0.100000,-0.100000)"
fill="#000000" stroke="none">
<path d="M4800 8350 c-255 -73 -313 -97 -451 -196 -117 -83 -132 -98 -221
-214 -207 -272 -266 -453 -293 -904 -12 -208 -19 -273 -36 -326 l-22 -67 37
-294 37 -294 110 -288 c61 -159 109 -290 107 -291 -2 -2 -39 -27 -82 -57 l-79
-53 6 -138 6 -137 -36 -10 c-19 -6 -96 -24 -170 -42 -111 -26 -133 -34 -129
-48 3 -9 17 -65 31 -126 14 -60 28 -116 30 -123 3 -9 -72 -51 -230 -129 -263
-128 -243 -107 -203 -208 11 -27 100 -284 199 -570 136 -394 185 -524 202
-537 25 -18 1097 -882 1334 -1074 l151 -123 734 606 c403 332 736 608 740 611
8 8 430 1154 426 1157 -2 1 -104 48 -228 104 -124 57 -228 106 -232 110 -3 3
9 77 27 163 l33 157 -52 11 c-28 6 -105 21 -171 34 l-120 23 -3 150 -3 149
-47 23 c-101 49 -104 10 21 343 l110 293 46 305 46 305 -21 97 c-17 76 -23
147 -28 335 l-7 238 -42 145 c-37 128 -50 160 -119 275 -43 72 -120 182 -172
244 l-94 113 -273 129 c-258 123 -281 132 -384 150 -71 12 -152 19 -230 18
-107 -1 -134 -5 -255 -39z m455 -85 c101 -18 319 -102 502 -194 104 -52 116
-62 192 -148 57 -65 101 -129 154 -226 64 -116 79 -154 115 -288 39 -144 42
-165 47 -329 3 -105 14 -224 27 -299 19 -116 20 -134 8 -253 -7 -70 -16 -125
-20 -123 -5 3 -6 -12 -3 -32 2 -21 -3 -67 -11 -103 l-15 -65 4 55 c3 46 1 40
-15 -35 -21 -100 -23 -119 -9 -90 6 14 7 7 3 -25 -3 -25 -57 -194 -120 -377
l-115 -332 22 -143 c11 -79 24 -163 29 -187 l8 -45 -166 -160 c-92 -89 -307
-297 -477 -462 l-311 -302 -429 415 c-237 228 -450 434 -474 457 l-44 44 21
184 c28 250 32 229 -157 732 -46 122 -73 209 -76 245 -5 58 -1 53 10 -13 3
-21 9 -36 11 -33 3 3 0 43 -8 89 -10 70 -14 78 -20 53 -4 -18 -5 -7 -3 30 4
44 2 55 -5 40 -8 -15 -9 -8 -5 28 3 28 1 47 -6 47 -5 0 -9 15 -9 33 1 17 -3
61 -8 97 -7 48 -6 83 4 131 7 37 20 143 29 235 44 466 69 588 156 751 33 62
95 159 137 216 75 102 79 106 218 194 104 66 170 101 246 128 198 70 384 90
563 60z m992 -2097 c-3 -8 -6 -5 -6 6 -1 11 2 17 5 13 3 -3 4 -12 1 -19z
m-2097 -2403 c0 -22 -4 -25 -40 -25 l-40 0 0 -156 0 -155 -36 3 -36 3 1 153 2
152 -41 0 c-36 0 -40 2 -40 25 l0 25 115 0 115 0 0 -25z m270 0 c0 -22 -4 -25
-35 -25 l-35 0 0 -130 0 -130 35 0 c31 0 35 -3 35 -25 l0 -25 -114 0 -113 0 5
25 c4 21 10 25 38 25 l34 0 0 130 0 130 -35 0 c-31 0 -35 3 -35 25 l0 25 110
0 110 0 0 -25z m248 -132 c18 -87 35 -168 38 -180 6 -21 3 -23 -34 -23 -39 0
-41 2 -44 33 -3 29 -6 32 -40 35 -32 3 -38 0 -38 -17 0 -39 -11 -51 -49 -51
l-37 0 34 168 c19 92 36 173 38 180 2 7 22 12 52 12 l48 0 32 -157z m302 132
c0 -24 -2 -25 -65 -25 -81 0 -85 -6 -85 -137 0 -110 6 -123 57 -123 l33 0 0
55 c0 54 0 55 -30 55 -25 0 -30 4 -30 25 0 25 1 26 63 23 l62 -3 3 -102 3
-103 -96 0 -95 0 -20 33 c-17 27 -20 50 -20 147 0 97 3 120 20 148 l20 32 90
0 c89 0 90 0 90 -25z m266 4 c17 -19 19 -37 19 -159 0 -173 -4 -180 -107 -180
-38 0 -78 4 -88 10 -29 15 -40 65 -40 179 0 88 3 112 20 139 20 32 20 32 98
32 68 0 82 -3 98 -21z m159 -105 c10 -69 21 -120 25 -112 4 7 13 51 19 98 20
145 18 140 59 140 l37 0 0 -180 0 -180 -27 0 -28 0 -1 93 -2 92 -15 -93 -14
-93 -32 3 c-31 3 -31 3 -42 83 l-11 80 -2 -82 -1 -83 -30 0 -30 0 0 180 0 180
38 0 39 0 18 -126z m396 96 c16 -21 19 -45 20 -149 1 -108 -2 -127 -19 -150
-17 -23 -26 -26 -94 -29 -72 -3 -77 -1 -97 24 -19 24 -21 40 -21 154 0 114 2
130 21 154 20 25 25 27 97 24 67 -3 77 -6 93 -28z m279 -2 c17 -28 20 -51 20
-148 0 -97 -3 -120 -20 -147 l-20 -33 -97 0 -98 0 0 180 0 180 98 0 97 0 20
-32z m300 14 c0 -10 -31 -76 -70 -148 -38 -71 -70 -132 -70 -136 0 -5 32 -8
70 -8 68 0 70 -1 70 -25 l0 -25 -120 0 c-96 0 -120 3 -120 14 0 8 34 76 75
152 l75 139 -75 3 c-72 3 -75 4 -75 27 l0 25 120 0 c109 0 120 -2 120 -18z"/>
<path d="M4755 7644 c-170 -28 -297 -54 -342 -70 l-73 -27 -45 -82 c-50 -92
-52 -101 -29 -126 15 -17 12 -26 -55 -140 -71 -121 -71 -121 -71 -196 0 -70
-2 -78 -32 -116 -33 -40 -33 -44 -53 -236 l-20 -196 105 -560 105 -560 45 -44
c25 -24 36 -38 25 -30 -11 8 12 -22 50 -66 39 -44 106 -122 150 -173 l80 -92
249 -81 248 -81 299 104 299 104 96 110 c53 60 114 128 135 150 l38 42 70 393
c38 217 84 474 102 573 l31 178 -22 212 c-20 198 -23 213 -47 238 -24 25 -25
32 -21 102 l5 75 -62 111 -61 110 9 64 9 64 -78 99 c-42 54 -78 99 -78 100 -3
5 -718 93 -752 92 -21 -1 -160 -21 -309 -45z m699 -100 l320 -45 46 -39 46
-39 -9 -63 -9 -63 76 -139 76 -139 0 -82 c0 -82 0 -83 34 -108 31 -25 34 -31
41 -104 4 -43 7 -109 6 -147 -1 -63 -4 -73 -39 -120 -21 -28 -49 -67 -62 -86
l-24 -35 27 24 c36 32 34 22 -8 -43 -34 -54 -50 -66 -87 -66 -20 0 -21 1 -3
20 21 23 21 23 -62 9 -70 -12 -70 -13 -56 -94 6 -36 8 -38 13 -13 5 25 7 24
47 -35 l43 -62 -20 -175 c-18 -167 -21 -181 -70 -300 -27 -68 -49 -128 -48
-132 2 -4 28 3 57 15 53 21 56 24 71 77 52 174 224 710 227 707 2 -3 -64 -381
-83 -467 -3 -14 -6 -34 -8 -45 -1 -11 -6 -28 -11 -38 -4 -10 -5 -21 -1 -24 3
-3 1 -12 -5 -20 -6 -7 -9 -22 -6 -33 3 -11 1 -20 -5 -20 -6 0 -8 -13 -6 -30 3
-16 1 -30 -2 -30 -4 0 -17 -51 -30 -113 l-22 -113 -150 -113 -151 -113 -141
-44 c-233 -73 -367 -106 -402 -101 -18 3 -125 35 -238 71 l-205 66 -133 121
c-203 185 -191 168 -213 289 -12 66 -21 96 -25 82 -3 -13 -31 138 -62 334 -32
197 -56 359 -54 361 1 2 54 -174 117 -389 l114 -393 64 -23 c35 -12 66 -20 68
-18 3 3 -9 22 -26 44 -28 35 -37 65 -86 288 l-54 249 38 40 c30 31 41 53 50
99 18 95 19 93 -52 105 -83 14 -86 14 -57 -9 l25 -20 -33 0 c-37 0 -71 29
-106 91 l-19 34 21 -19 c41 -36 31 -10 -30 73 l-62 84 2 91 c2 161 7 179 59
216 l45 33 -4 101 -4 101 78 134 c70 121 76 137 63 151 -20 22 -19 24 10 69
43 65 122 88 440 132 149 20 286 37 305 38 19 1 179 -20 354 -45z m-1074
-2329 c19 -19 32 -35 29 -35 -3 0 -20 16 -39 35 -19 19 -32 35 -29 35 3 0 20
-16 39 -35z m100 -90 c13 -14 21 -25 18 -25 -2 0 -15 11 -28 25 -13 14 -21 25
-18 25 2 0 15 -11 28 -25z m91 -82 c13 -16 12 -17 -3 -4 -17 13 -22 21 -14 21
2 0 10 -8 17 -17z"/>
<path d="M4519 7150 c-86 -5 -123 -11 -147 -25 l-32 -19 21 -22 21 -23 -51
-90 c-50 -89 -51 -92 -50 -173 0 -125 8 -150 68 -226 l53 -69 77 -12 76 -13
88 43 c80 38 94 50 172 140 l85 98 0 90 c0 72 -4 99 -20 128 -11 21 -20 45
-20 53 0 8 -5 31 -10 52 -10 34 -15 37 -79 57 -38 12 -84 20 -103 19 -18 0
-85 -4 -149 -8z m212 -41 c54 -18 57 -29 4 -13 -51 15 -204 11 -274 -7 -50
-12 -49 -4 1 14 52 19 220 22 269 6z m3 -215 c13 -5 56 -87 56 -107 0 -7 -30
-31 -66 -54 -86 -55 -136 -61 -229 -31 l-70 23 -8 54 c-7 51 -5 57 19 82 34
35 103 49 208 43 43 -3 84 -8 90 -10z"/>
<path d="M4510 6867 c-55 -15 -80 -50 -65 -94 13 -37 89 -65 158 -59 70 7 157
52 157 81 0 71 -121 105 -250 72z"/>
<path d="M5398 7118 c-52 -24 -68 -37 -73 -57 -3 -14 -8 -34 -12 -45 -4 -14
-2 -16 8 -11 8 5 6 -1 -3 -12 -15 -16 -18 -38 -18 -117 l0 -97 76 -92 c67 -81
87 -98 170 -144 l94 -53 75 11 c73 11 78 14 141 73 l66 61 10 105 10 105 -52
98 c-51 95 -52 99 -34 118 17 19 17 20 -2 34 -36 27 -69 34 -209 44 -178 14
-168 15 -247 -21z m320 -20 c90 -17 49 -21 -86 -9 -129 12 -164 10 -214 -16
-16 -7 -28 -11 -28 -9 0 3 15 13 33 22 58 30 176 35 295 12z m87 -28 c3 -6 -1
-7 -9 -4 -18 7 -21 14 -7 14 6 0 13 -4 16 -10z m-129 -171 c46 -8 69 -18 88
-38 24 -25 26 -32 20 -83 l-7 -56 -76 -21 c-61 -18 -85 -20 -123 -13 -45 9
-168 78 -168 95 0 5 10 31 21 58 22 50 28 54 94 62 59 8 89 7 151 -4z"/>
<path d="M5514 6871 c-42 -11 -52 -18 -70 -52 -18 -37 -12 -46 49 -77 63 -32
123 -37 189 -18 46 13 58 21 69 47 19 47 -3 80 -61 96 -51 13 -130 15 -176 4z"/>
<path d="M5006 7077 l-45 -53 21 -72 c12 -40 26 -72 32 -72 6 0 24 11 41 24
l30 24 48 -25 c27 -13 50 -23 52 -21 2 2 12 39 24 83 l20 80 -47 42 c-39 35
-54 42 -89 43 -38 0 -45 -4 -87 -53z"/>
<path d="M5036 6702 l-50 -17 -70 -147 c-65 -134 -74 -149 -108 -164 -25 -11
-40 -27 -47 -47 -21 -58 -14 -74 59 -145 l69 -69 22 24 c15 15 18 23 9 23 -9
0 -8 6 5 20 10 11 22 20 27 20 13 0 109 -82 103 -88 -8 -8 27 -42 36 -36 5 3
9 0 9 -7 0 -7 11 -2 25 11 26 25 26 42 0 20 -8 -7 -15 -10 -15 -8 0 8 121 108
130 108 5 0 22 -12 37 -26 16 -15 21 -24 11 -21 -26 9 -30 -5 -8 -28 l21 -22
80 81 c83 85 84 86 59 151 -6 15 -27 34 -52 46 -40 19 -48 31 -116 162 -69
134 -75 143 -115 160 -50 20 -57 20 -121 -1z"/>
<path d="M4460 6065 c-19 -44 -21 -65 -18 -170 l3 -120 54 -112 c45 -94 58
-114 84 -122 16 -6 34 -11 38 -11 5 0 9 31 9 70 l0 69 44 -18 c43 -19 43 -19
65 2 19 19 23 20 31 7 23 -40 38 -53 54 -47 9 4 16 17 16 32 0 32 11 32 50 -1
l31 -27 43 42 c40 39 44 41 70 30 22 -10 32 -10 48 0 16 10 24 9 45 -4 24 -16
26 -16 46 3 l20 21 45 -40 45 -39 29 32 c16 18 31 29 34 23 2 -5 13 -25 25
-44 l20 -34 20 32 c22 37 23 37 57 11 l25 -21 29 28 c15 14 30 25 32 22 2 -2
14 -37 25 -76 19 -62 25 -73 44 -73 12 0 27 4 32 8 6 4 27 60 48 124 28 87 41
146 49 235 l10 118 -28 43 -28 43 -81 -87 c-68 -74 -85 -86 -104 -81 -14 3
-33 0 -46 -9 -20 -13 -23 -12 -41 21 -10 19 -20 35 -22 35 -2 0 -18 -8 -34
-17 -21 -12 -32 -14 -35 -7 -2 6 -9 19 -16 28 -12 16 -16 16 -47 3 -34 -14
-36 -14 -72 21 l-38 36 -33 -32 c-18 -18 -37 -32 -42 -32 -5 0 -23 14 -41 31
l-32 31 -27 -41 c-15 -22 -30 -41 -33 -41 -3 0 -18 12 -34 27 -15 14 -29 25
-31 22 -2 -2 -16 -21 -32 -42 l-28 -38 -29 27 -28 28 -17 -42 -16 -42 -24 22
c-16 15 -34 22 -53 20 -23 -3 -36 6 -72 45 -24 26 -60 66 -80 88 l-37 40 -21
-50z m180 -140 c30 -36 -10 -11 -50 32 l-45 47 41 -32 c22 -17 47 -38 54 -47z
m448 -37 l3 -74 -43 4 c-50 5 -55 10 -63 73 -6 40 -3 52 16 78 l23 31 30 -20
c29 -18 31 -23 34 -92z m127 9 c-8 -70 -12 -75 -61 -79 l-44 -3 0 71 c0 70 1
73 32 93 l33 20 23 -27 c19 -23 22 -35 17 -75z m395 53 c-23 -27 -47 -50 -53
-50 -6 0 11 23 38 50 27 28 51 50 53 50 2 0 -15 -22 -38 -50z m-675 -4 c13
-10 20 -30 23 -73 l4 -60 -38 6 c-34 6 -40 10 -50 46 -10 35 -9 44 8 68 22 31
27 32 53 13z m384 -11 c17 -23 18 -30 7 -68 -11 -38 -16 -42 -50 -48 l-38 -6
4 60 c3 43 10 63 23 73 26 19 31 18 54 -11z m-467 -58 c13 -46 9 -65 -17 -71
-57 -14 -80 29 -54 102 l11 32 26 -21 c15 -11 30 -30 34 -42z m578 -24 c0 -38
-26 -57 -66 -47 -24 6 -26 9 -20 48 5 27 16 48 34 63 l27 22 12 -27 c7 -15 12
-41 13 -59z m-703 35 c11 -13 23 -35 27 -50 5 -23 2 -30 -25 -43 -16 -9 -42
-15 -57 -13 -39 4 -42 48 -7 94 31 40 35 41 62 12z m808 -12 c35 -46 32 -90
-7 -94 -15 -2 -41 4 -57 13 -27 13 -30 20 -25 43 7 27 41 72 55 72 4 0 20 -15
34 -34z m-577 -102 c35 -10 30 -56 -10 -88 l-33 -25 -23 22 c-32 29 -27 78 8
88 34 10 32 9 58 3z m365 -11 c16 -9 6 -60 -16 -81 l-22 -21 -33 25 c-37 29
-45 79 -14 87 17 5 70 -1 85 -10z m-489 -2 c8 -12 -13 -111 -24 -111 -13 0
-40 48 -40 73 0 12 5 28 12 35 14 14 44 16 52 3z m256 -15 c0 -38 -24 -51 -54
-29 -14 10 -26 26 -26 36 0 13 8 17 40 17 35 0 40 -3 40 -24z m100 7 c0 -10
-12 -26 -26 -36 -30 -22 -54 -9 -54 29 0 21 5 24 40 24 32 0 40 -4 40 -17z
m228 5 c18 -18 14 -60 -7 -87 -18 -23 -19 -23 -28 -5 -13 24 -23 90 -16 98 10
10 38 7 51 -6z m-674 -47 c-10 -43 -29 -57 -59 -43 -19 9 -25 19 -25 42 0 36
31 53 67 37 18 -8 21 -16 17 -36z m794 0 c3 -25 -2 -33 -23 -43 -30 -14 -49 0
-59 43 -4 21 -1 28 17 36 34 16 62 1 65 -36z"/>
<path d="M6261 6344 c0 -11 3 -14 6 -6 3 7 2 16 -1 19 -3 4 -6 -2 -5 -13z"/>
<path d="M5590 4644 c-212 -184 -408 -356 -437 -381 l-52 -45 -417 364 c-385
336 -444 386 -444 375 0 -9 735 -684 772 -709 58 -39 98 -45 150 -19 50 24
840 751 817 751 -3 0 -178 -151 -389 -336z"/>
<path d="M4576 3678 c-4 -29 -10 -70 -13 -90 -5 -35 -4 -38 19 -38 14 0 27 2
30 5 5 5 -18 165 -25 172 -3 2 -7 -20 -11 -49z"/>
<path d="M5100 3714 c-13 -34 -13 -190 0 -215 12 -22 59 -26 78 -7 8 8 12 49
12 118 0 115 -6 130 -52 130 -21 0 -31 -6 -38 -26z"/>
<path d="M5656 3725 c-9 -25 -7 -218 3 -233 5 -8 22 -12 42 -10 l34 3 0 125 0
125 -36 3 c-26 2 -38 -1 -43 -13z"/>
<path d="M5930 3610 l0 -130 35 0 c47 0 55 20 55 130 0 110 -8 130 -55 130
l-35 0 0 -130z"/>
<path d="M6090 8235 c35 -36 67 -65 69 -65 3 0 -24 29 -59 65 -35 36 -67 65
-69 65 -3 0 24 -29 59 -65z"/>
<path d="M4070 8213 l-55 -58 58 55 c31 30 57 56 57 57 0 8 -10 -1 -60 -54z"/>
<path d="M3642 7260 c0 -14 2 -19 5 -12 2 6 2 18 0 25 -3 6 -5 1 -5 -13z"/>
<path d="M6573 7110 c0 -47 2 -66 4 -42 2 23 2 61 0 85 -2 23 -4 4 -4 -43z"/>
<path d="M3632 7095 c0 -16 2 -22 5 -12 2 9 2 23 0 30 -3 6 -5 -1 -5 -18z"/>
<path d="M3622 6925 c0 -16 2 -22 5 -12 2 9 2 23 0 30 -3 6 -5 -1 -5 -18z"/>
<path d="M7835 6778 c-253 -4 -606 -11 -785 -15 -317 -8 -325 -8 -322 -28 2
-11 9 -45 15 -76 10 -54 -1 -130 -27 -190 -6 -13 1 -18 30 -23 20 -4 242 -6
494 -5 251 1 462 -1 468 -5 17 -10 15 -39 -5 -62 -43 -47 -90 -113 -113 -157
-14 -27 -35 -60 -47 -73 -12 -13 -20 -24 -18 -24 2 0 -11 -27 -30 -59 -19 -33
-35 -64 -35 -70 0 -6 -4 -11 -10 -11 -5 0 -10 -7 -10 -15 0 -7 -6 -18 -13 -22
-8 -4 -27 -35 -44 -68 -43 -85 -67 -129 -73 -135 -3 -3 -18 -30 -33 -60 -15
-30 -41 -77 -58 -105 -16 -27 -43 -78 -60 -112 -16 -35 -34 -63 -39 -63 -5 0
-13 -12 -16 -27 -4 -16 -16 -44 -27 -63 -49 -85 -90 -174 -107 -232 -10 -35
-26 -84 -36 -109 -27 -70 -15 -88 88 -128 45 -18 97 -43 113 -54 21 -15 45
-22 78 -22 44 0 51 4 91 45 42 44 76 94 151 219 21 35 44 71 52 80 7 9 25 29
38 45 14 16 22 32 19 37 -3 5 0 9 5 9 6 0 10 3 10 8 -3 20 2 32 13 26 6 -4 8
-3 5 3 -4 6 5 23 18 37 14 15 23 32 20 37 -4 5 -1 9 6 9 7 0 10 3 7 6 -4 3 1
14 10 24 36 40 43 51 45 70 1 11 6 20 11 20 5 0 7 3 4 6 -3 3 6 18 21 33 14
15 48 71 75 124 27 53 53 97 58 97 4 0 8 5 8 12 0 13 90 170 102 178 4 3 9 17
10 30 2 14 6 27 9 30 3 3 20 31 38 63 18 31 37 57 42 57 6 0 7 5 4 10 -3 6 -1
10 5 10 6 0 8 5 5 10 -3 6 -1 10 5 10 6 0 8 5 5 10 -3 6 -2 10 3 10 5 0 9 6 9
13 0 18 83 158 106 179 10 9 19 25 22 36 6 32 35 83 51 89 7 3 14 13 14 24 0
10 6 22 13 26 13 8 66 93 64 103 -1 6 32 47 51 64 79 70 95 88 81 97 -8 5 -42
9 -76 9 -34 0 -65 5 -68 10 -3 6 -23 9 -43 8 -20 0 -244 -5 -497 -10z"/>
<path d="M1590 6744 c-30 -7 -74 -13 -97 -13 -24 -1 -43 -5 -43 -10 0 -9 33
-43 90 -91 16 -14 30 -31 30 -37 0 -7 4 -13 8 -13 5 0 14 -11 20 -24 6 -14 22
-37 36 -53 37 -40 98 -134 93 -140 -3 -2 2 -13 11 -23 27 -29 42 -49 42 -53 0
-3 20 -35 45 -72 25 -36 43 -71 39 -76 -3 -5 0 -9 5 -9 6 0 11 -6 11 -14 0 -8
4 -16 9 -18 15 -6 102 -149 96 -159 -4 -5 -2 -9 3 -9 4 0 18 -18 31 -40 12
-22 27 -40 32 -40 6 0 8 -4 5 -8 -3 -5 8 -24 24 -42 16 -19 32 -46 35 -60 3
-14 19 -38 35 -54 17 -15 28 -32 24 -37 -3 -5 -1 -9 5 -9 5 0 12 -13 16 -30 4
-16 10 -30 15 -30 4 0 14 -15 21 -32 7 -18 25 -44 39 -58 14 -14 25 -28 25
-32 0 -4 8 -16 17 -27 9 -11 14 -22 11 -25 -7 -7 78 -126 90 -126 6 0 7 -3 4
-7 -4 -3 2 -16 13 -28 12 -12 20 -26 18 -31 -4 -12 41 -84 52 -84 12 0 85
-122 82 -137 -1 -6 7 -14 18 -18 11 -3 20 -11 20 -16 0 -5 8 -17 18 -27 10
-10 40 -52 66 -94 63 -99 94 -128 143 -135 34 -4 44 0 83 33 43 36 193 114
221 114 26 1 50 28 56 63 4 28 -3 52 -36 119 -22 45 -61 115 -86 153 -25 39
-51 85 -57 103 -7 17 -16 32 -21 32 -4 0 -5 5 -2 10 3 6 1 10 -4 10 -6 0 -11
6 -11 14 0 8 -11 28 -25 44 -14 17 -25 34 -25 40 0 5 -7 15 -15 22 -8 7 -13
16 -10 20 3 4 -4 19 -16 34 -11 14 -21 35 -22 46 -1 12 -16 38 -34 58 -19 20
-36 47 -39 60 -4 12 -10 22 -14 22 -4 0 -11 10 -15 23 -15 47 -37 87 -47 87
-4 0 -8 7 -8 15 0 8 -5 15 -12 15 -6 0 -9 3 -5 6 7 8 -41 86 -59 97 -8 4 -14
15 -14 22 0 8 -4 15 -9 15 -5 0 -12 11 -15 25 -4 14 -11 25 -16 25 -6 0 -10 5
-10 10 0 6 -11 28 -24 49 -14 21 -22 42 -19 45 4 3 2 6 -4 6 -6 0 -30 30 -54
68 -23 37 -45 69 -49 72 -8 7 -65 82 -74 97 -17 29 40 33 541 39 566 5 598 7
588 32 -35 92 -39 188 -10 259 l14 32 -237 3 c-130 2 -543 4 -916 6 -374 2
-682 4 -685 5 -3 2 -31 -2 -61 -9z"/>
<path d="M6624 6645 c0 -60 1 -84 3 -52 2 32 2 81 0 110 -2 29 -3 3 -3 -58z"/>
<path d="M3611 6254 c0 -11 3 -14 6 -6 3 7 2 16 -1 19 -3 4 -6 -2 -5 -13z"/>
<path d="M3621 6174 c0 -11 3 -14 6 -6 3 7 2 16 -1 19 -3 4 -6 -2 -5 -13z"/>
<path d="M6772 4850 c0 -14 2 -19 5 -12 2 6 2 18 0 25 -3 6 -5 1 -5 -13z"/>
<path d="M3480 3125 c13 -14 26 -25 28 -25 3 0 -5 11 -18 25 -13 14 -26 25
-28 25 -3 0 5 -11 18 -25z"/>
<path d="M4370 2260 c-7 -10 -11 -20 -9 -22 2 -3 -2 -12 -9 -21 -10 -11 -11
-21 -3 -35 6 -11 7 -23 3 -27 -4 -5 -1 -5 6 -1 11 6 14 0 11 -20 0 -4 5 -10
13 -15 7 -5 14 -13 14 -19 1 -5 2 -15 3 -21 0 -5 6 -7 11 -4 8 5 15 -9 8 -17
-1 -2 11 -16 25 -32 15 -16 26 -34 24 -40 -5 -12 23 -66 34 -66 4 0 10 -11 13
-25 4 -14 11 -25 16 -25 6 0 10 -5 10 -10 0 -6 9 -20 20 -32 11 -12 20 -17 20
-11 0 7 -6 18 -13 25 -22 24 -70 102 -70 115 0 7 -4 13 -9 13 -5 0 -6 5 -3 10
4 6 2 16 -3 23 -26 31 -50 87 -41 92 5 4 15 -6 22 -22 7 -15 23 -46 37 -68 14
-22 31 -49 37 -60 7 -11 43 -71 82 -132 38 -62 75 -126 82 -143 8 -16 18 -30
22 -30 5 0 5 -5 2 -10 -3 -6 1 -13 9 -16 9 -3 13 -10 10 -15 -3 -5 0 -9 5 -9
6 0 11 -7 11 -15 0 -8 5 -15 11 -15 5 0 8 -4 5 -9 -3 -5 1 -12 10 -15 8 -3 12
-10 9 -16 -3 -5 -1 -10 4 -10 6 0 11 -5 11 -10 0 -6 9 -20 20 -32 10 -12 17
-24 15 -28 -3 -5 1 -10 9 -13 9 -4 12 -14 9 -26 -3 -13 -1 -21 6 -21 7 0 10
-4 7 -9 -3 -5 1 -12 10 -15 8 -3 13 -10 10 -15 -3 -5 1 -12 10 -15 8 -3 12
-10 9 -16 -3 -5 -1 -10 4 -10 6 0 11 -13 11 -29 0 -17 11 -42 25 -59 14 -17
25 -37 25 -46 0 -9 5 -16 11 -16 5 0 7 5 4 10 -9 14 -7 13 58 -20 57 -28 60
-29 95 -14 20 8 40 20 44 27 4 7 8 8 8 3 0 -5 7 -3 15 4 11 10 15 10 15 0 0
-22 25 -3 26 20 1 13 7 26 13 28 6 2 11 10 11 18 0 8 4 14 8 14 5 0 8 13 7 30
-1 17 4 31 12 34 8 3 11 10 8 16 -3 5 -1 10 5 10 6 0 8 5 5 10 -3 6 -1 10 5
10 6 0 8 5 5 10 -3 6 0 13 8 16 8 3 14 13 12 22 -3 19 34 92 47 92 5 0 6 5 3
10 -3 6 -2 10 3 10 6 0 13 11 16 25 4 14 11 25 17 25 6 0 7 5 4 10 -3 6 -1 10
4 10 6 0 11 7 11 15 0 8 5 15 11 15 5 0 7 5 3 11 -3 6 -2 14 3 18 5 3 36 56
68 116 32 61 73 133 92 161 18 28 33 55 33 59 0 5 16 39 35 76 42 82 59 145
39 153 -7 3 -16 1 -19 -4 -4 -6 -11 -10 -17 -10 -6 0 -6 6 2 16 19 22 65 14
66 -11 0 -11 -2 -24 -5 -30 -3 -5 -7 -19 -8 -30 -2 -11 -17 -48 -34 -83 -16
-34 -27 -67 -24 -72 3 -6 1 -10 -5 -10 -6 0 -8 -4 -5 -10 3 -5 1 -10 -4 -10
-6 0 -11 -9 -11 -21 0 -13 -4 -18 -12 -13 -6 4 -8 3 -5 -3 4 -6 -4 -27 -18
-47 -14 -20 -25 -40 -25 -45 0 -4 -9 -18 -20 -31 -24 -27 -26 -42 -5 -34 8 3
14 9 13 12 -2 11 25 62 32 62 4 0 13 15 21 33 7 17 16 34 19 37 16 13 51 81
46 89 -4 5 5 22 19 37 13 14 22 30 20 34 -3 4 2 11 11 14 8 3 12 10 9 16 -3 5
-1 10 5 10 6 0 8 5 5 10 -3 6 -1 10 5 10 6 0 9 4 5 9 -3 6 2 14 11 19 19 11
20 22 2 33 -11 7 -10 9 1 9 10 0 7 8 -9 25 -44 46 -69 34 -220 -104 -131 -119
-340 -291 -385 -314 -56 -30 -146 -29 -203 1 -49 25 -250 185 -392 311 -102
90 -185 155 -211 164 -9 3 -22 -3 -29 -13z"/>
<path d="M5040 1866 c0 -2 8 -10 18 -17 15 -13 16 -12 3 4 -13 16 -21 21 -21
13z"/>
<path d="M5139 1843 c-13 -16 -12 -17 4 -4 16 13 21 21 13 21 -2 0 -10 -8 -17
-17z"/>
<path d="M5030 1115 c47 -18 58 -18 34 0 -10 8 -30 14 -44 14 -22 0 -21 -2 10
-14z"/>
<path d="M5165 1114 c-19 -16 -19 -16 5 -9 14 4 32 11 40 16 12 7 11 8 -5 8
-11 0 -29 -7 -40 -15z"/>
<path d="M4985 1070 c-3 -5 3 -10 14 -10 12 0 21 5 21 10 0 6 -6 10 -14 10 -8
0 -18 -4 -21 -10z"/>
</g>
</svg>
